<?xml version="1.0" encoding="UTF-8" standalone="no"?>
<svg
   xmlns:dc="http://purl.org/dc/elements/1.1/"
   xmlns:cc="http://creativecommons.org/ns#"
   xmlns:rdf="http://www.w3.org/1999/02/22-rdf-syntax-ns#"
   xmlns:svg="http://www.w3.org/2000/svg"
   xmlns="http://www.w3.org/2000/svg"
   xmlns:xlink="http://www.w3.org/1999/xlink"
   xmlns:sodipodi="http://sodipodi.sourceforge.net/DTD/sodipodi-0.dtd"
   xmlns:inkscape="http://www.inkscape.org/namespaces/inkscape"
   version="1.1"
   x="0px"
   y="0px"
   viewBox="0 0 100 100"
   enable-background="new 0 0 100 100"
   xml:space="preserve"
   id="svg3853"
   sodipodi:docname="new_logo.svg"
   inkscape:version="0.92.2 (5c3e80d, 2017-08-06)"
   width="100"
   height="100"
   inkscape:export-filename="/home/andrei/Dev/Search-and-Switch-Containers/icon-128.png"
   inkscape:export-xdpi="122.88"
   inkscape:export-ydpi="122.88"><metadata
     id="metadata3859"><rdf:RDF><cc:Work
         rdf:about=""><dc:format>image/svg+xml</dc:format><dc:type
           rdf:resource="http://purl.org/dc/dcmitype/StillImage" /><dc:title /></cc:Work></rdf:RDF></metadata><defs
     id="defs3857"><linearGradient
       gradientUnits="userSpaceOnUse"
       gradientTransform="scale(1.0444659,0.95742711)"
       x2="0"
       y2="100.09465"
       y1="4.3519414"
       x1="0"
       id="linearGradient860"><stop
         style="stop-color:#fef6f2;stop-opacity:1"
         stop-color="#e5eff9"
         offset="-99"
         id="stop858" /><stop
         style="stop-color:#ffffff;stop-opacity:1"
         stop-color="#ffffff"
         offset="1"
         id="stop856" /></linearGradient><linearGradient
       inkscape:collect="always"
       id="linearGradient912"><stop
         id="stop910"
         offset="0"
         style="stop-color:#4c7793;stop-opacity:1" /><stop
         id="stop908"
         offset="1"
         style="stop-color:#3c5f75;stop-opacity:1" /></linearGradient><linearGradient
       inkscape:collect="always"
       id="linearGradient888"><stop
         id="stop886"
         offset="0"
         style="stop-color:#7fc7f6;stop-opacity:1" /><stop
         id="stop884"
         offset="1"
         style="stop-color:#588bac;stop-opacity:1" /></linearGradient><linearGradient
       inkscape:collect="always"
       xlink:href="#linearGradient888"
       id="linearGradient890"
       x1="8.2250423"
       y1="30.847824"
       x2="93.649567"
       y2="117.36369"
       gradientUnits="userSpaceOnUse"
       gradientTransform="matrix(1.034065,0,0,1.034065,-1.8521044,-2.1617909)" /><linearGradient
       inkscape:collect="always"
       xlink:href="#linearGradient912"
       id="linearGradient914"
       x1="8.2250423"
       y1="30.847824"
       x2="91.510155"
       y2="119.48782"
       gradientUnits="userSpaceOnUse"
       gradientTransform="matrix(1.034065,0,0,1.034065,-1.8521044,-2.1617909)" /><mask
       id="mask"><path
         fill="#FFFFFF"
         stroke="none"
         d=" M 97.95 12.7 Q 97.95 8.3 94.75 5.1 91.7 2.05 87.25 2.05 L 12.7 2.05 Q 8.3 2.05 5.2 5.1 2.05 8.3 2.05 12.7 L 2.05 87.25 Q 2.05 91.65 5.2 94.75 8.3 97.9 12.7 97.9 L 87.25 97.9 Q 91.7 97.9 94.75 94.75 97.95 91.65 97.95 87.25 L 97.95 12.7 Z"
         id="path5" /></mask><linearGradient
       id="picture-gradient"
       x1="0"
       y1="4.3519414"
       y2="100.09465"
       x2="0"
       gradientTransform="scale(1.0444659,0.95742711)"
       gradientUnits="userSpaceOnUse"><stop
         stop-color="#ffffff"
         offset="0%"
         id="stop28" /><stop
         stop-color="#e5eff9"
         offset="100%"
         id="stop30" /></linearGradient><linearGradient
       inkscape:collect="always"
       xlink:href="#linearGradient860"
       id="linearGradient1844"
       gradientUnits="userSpaceOnUse"
       gradientTransform="scale(1.0444659,0.95742711)"
       x1="10.988762"
       y1="1.2999523"
       x2="10.874692"
       y2="23.911341" /><linearGradient
       inkscape:collect="always"
       xlink:href="#picture-gradient"
       id="linearGradient1846"
       gradientUnits="userSpaceOnUse"
       gradientTransform="scale(1.0444659,0.95742711)"
       x1="0"
       y1="4.3519414"
       x2="0"
       y2="100.09465" /></defs><sodipodi:namedview
     pagecolor="#ffffff"
     bordercolor="#666666"
     borderopacity="1"
     objecttolerance="10"
     gridtolerance="10"
     guidetolerance="10"
     inkscape:pageopacity="0"
     inkscape:pageshadow="2"
     inkscape:window-width="1920"
     inkscape:window-height="1053"
     id="namedview3855"
     showgrid="false"
     inkscape:zoom="6.808"
     inkscape:cx="50.146885"
     inkscape:cy="44.617211"
     inkscape:window-x="0"
     inkscape:window-y="27"
     inkscape:window-maximized="1"
     inkscape:current-layer="layer2"
     showguides="true"><inkscape:grid
       type="xygrid"
       id="grid854" /></sodipodi:namedview><rect
     style="fill:#000000;fill-opacity:0"
     id="rect4666"
     width="90.04113"
     height="71.386604"
     x="0.29377204"
     y="-24.412457" /><g
     inkscape:groupmode="layer"
     id="layer1"
     inkscape:label="bg"
     transform="translate(0,-25)"><rect
       style="fill:url(#linearGradient890);fill-opacity:1;stroke:url(#linearGradient914);stroke-width:1.76381981;stroke-opacity:1"
       id="rect4668"
       width="98.236183"
       height="98.236183"
       x="0.88190991"
       y="25.881907"
       ry="15.052319" /></g><g
     inkscape:groupmode="layer"
     id="layer2"
     inkscape:label="fg"
     transform="translate(0,-25)"><g
       mask="url(#mask)"
       id="g43"
       transform="matrix(1.3656303,0,0,1.3549163,-17.939314,7.2802697)"><g
         transform="matrix(0.65,0,0,0.65,17.5,17.5)"
         id="g41"><g
           id="use39"
           transform="scale(4.1666667)"
           style="fill:url(#linearGradient1846)"><path
             inkscape:connector-curvature="0"
             id="path1840"
             d="M 7.471,8.332 C 7.328,7.934 6.672,7.934 6.53,8.332 l -2.5,7 a 0.500065,0.500065 0 0 0 0.942,0.336 L 5.567,14 H 8.434 L 9.03,15.668 A 0.49959409,0.49959409 0 1 0 9.971,15.332 Z M 5.924,13 7,9.987 8.076,13 Z M 21.5,1 H 2.5 A 2.503,2.503 0 0 0 0,3.5 v 17 C 0,21.878 1.122,23 2.5,23 h 19 C 22.878,23 24,21.878 24,20.5 V 3.5 C 24,2.122 22.878,1 21.5,1 Z m -15,2 a 0.5,0.5 0 1 1 0,1 0.5,0.5 0 0 1 0,-1 z m -2,0 a 0.5,0.5 0 1 1 0,1 0.5,0.5 0 0 1 0,-1 z m -2,0 a 0.5,0.5 0 1 1 0,1 0.5,0.5 0 0 1 0,-1 z m 0,19 C 1.673,22 1,21.327 1,20.5 V 6 h 9.136 l 5.176,16 z m 12.037,-6.812 c 0.199,0.491 0.724,1.173 1.335,1.866 a 8.735,8.735 0 0 1 -0.854,0.785 L 13.452,13 H 18.4 c -0.236,0.789 -0.916,2.095 -1.865,3.293 -0.511,-0.584 -0.927,-1.125 -1.073,-1.482 a 0.5,0.5 0 0 0 -0.925,0.377 z M 23,20.5 c 0,0.827 -0.673,1.5 -1.5,1.5 h -5.136 l -1.016,-3.14 a 9.01,9.01 0 0 0 1.196,-1.072 46.426,46.426 0 0 0 2.118,2.081 0.498,0.498 0 0 0 0.707,-0.031 0.5,0.5 0 0 0 -0.031,-0.707 45.647,45.647 0 0 1 -2.129,-2.097 c 1.138,-1.403 1.984,-3.011 2.216,-4.035 h 1.074 a 0.5,0.5 0 0 0 0,-1 H 17 v -0.5 a 0.5,0.5 0 0 0 -1,0 v 0.5 h -2.872 l -1.941,-6 H 23 Z"
             style="fill:url(#linearGradient1844)" /></g></g></g></g></svg>